<?xml version="1.0" encoding="UTF-8"?>
<svg xmlns="http://www.w3.org/2000/svg" xmlns:xlink="http://www.w3.org/1999/xlink" width="3836" height="3835" viewBox="0 0 3836 3835">
<path fill-rule="nonzero" fill="transparent" d="M 0.707031 0.0195312 L 3835.539062 0.0195312 C 3835.539062 1278.300781 3835.539062 2556.570312 3835.539062 3834.847656 C 2557.261719 3834.847656 1278.980469 3834.847656 0.707031 3834.851562 C 0.707031 2556.570312 0.707031 1278.300781 0.707031 0.0195312 "/>
<path fill-rule="nonzero" fill="rgb(13.330078%, 19.604492%, 24.705505%)" fill-opacity="1" d="M 1901.039062 1263.261719 L 1901.050781 1263.261719 Z M 1280.089844 1140.089844 C 1292.398438 1151.871094 1308.519531 1165.769531 1331.96875 1183.71875 C 1336.320312 1187.050781 1340.941406 1190.519531 1345.589844 1194.03125 C 1393.148438 1229.871094 1448 1272.410156 1470.128906 1326.660156 C 1491 1377.851562 1484.878906 1444.171875 1472.199219 1522.828125 L 1087.75 1522.828125 C 1075.089844 1443.78125 1068.941406 1377.269531 1089.648438 1326.5 C 1108.171875 1281.070312 1150.621094 1243.671875 1193.320312 1211 C 1199.480469 1206.28125 1205.441406 1201.808594 1211.328125 1197.398438 C 1216.609375 1193.441406 1221.859375 1189.5 1226.789062 1185.730469 C 1251.019531 1167.191406 1267.519531 1152.621094 1280.089844 1140.089844 Z M 1069.960938 1608.988281 L 1485.953125 1608.988281 L 1485.953125 1658.78125 L 1069.960938 1658.78125 Z M 1451.539062 1745.140625 L 1451.539062 1873.460938 C 1428.230469 1927.441406 1419.429688 1988.511719 1416.058594 2049.460938 L 1416.070312 2049.46875 L 1104.371094 2049.460938 L 1104.371094 1745.140625 Z M 1940.449219 1634.101562 C 1973.921875 1655.621094 2013.289062 1678.789062 2082.179688 1709.089844 C 2091.25 1713.078125 2100.859375 1717.199219 2110.601562 1721.378906 L 2110.601562 1721.390625 C 2193.011719 1756.75 2286.550781 1798.03125 2334.539062 1862.421875 C 2383.691406 1928.359375 2388.800781 2024.070312 2389.460938 2137.171875 L 1491.789062 2137.160156 L 1491.78125 2137.160156 C 1492.519531 2024.121094 1497.691406 1928.421875 1546.808594 1862.480469 C 1587.949219 1807.238281 1663.53125 1768.308594 1737.839844 1735.570312 C 1748.988281 1730.660156 1759.859375 1725.980469 1770.5 1721.410156 C 1780.230469 1717.230469 1789.851562 1713.089844 1798.910156 1709.101562 C 1867.710938 1678.800781 1907.019531 1655.628906 1940.449219 1634.101562 Z M 1380.878906 2224.058594 L 2500.519531 2224.058594 L 2500.519531 2258.261719 L 1380.878906 2258.261719 Z M 1079.859375 2137.820312 L 1329.878906 2137.820312 C 1321.160156 2139.359375 1313.058594 2143.539062 1306.710938 2149.890625 C 1298.558594 2158.039062 1293.980469 2169.089844 1293.980469 2180.609375 L 1293.980469 2301.710938 C 1293.980469 2313.230469 1298.558594 2324.28125 1306.710938 2332.429688 C 1314.859375 2340.578125 1325.910156 2345.160156 1337.429688 2345.160156 L 1383.011719 2345.160156 L 1383.011719 2378.679688 L 1079.859375 2378.679688 Z M 2687.289062 2592.398438 C 2720.730469 2592.398438 2747.839844 2619.5 2747.839844 2652.941406 L 2747.839844 2938.695312 L 2626.75 2938.695312 L 2626.75 2652.941406 C 2626.75 2619.5 2653.859375 2592.398438 2687.289062 2592.398438 Z M 1194.808594 2592.398438 C 1228.25 2592.398438 1255.351562 2619.5 1255.351562 2652.941406 L 1255.351562 2938.695312 L 1134.261719 2938.695312 L 1134.261719 2652.941406 C 1134.261719 2619.5 1161.371094 2592.398438 1194.808594 2592.398438 Z M 1005.539062 2465.578125 L 1383.011719 2465.578125 L 1383.011719 2938.695312 L 1323.539062 2938.695312 L 1323.539062 2652.941406 C 1323.539062 2581.839844 1265.898438 2524.210938 1194.808594 2524.210938 C 1123.710938 2524.210938 1066.078125 2581.839844 1066.078125 2652.941406 L 1066.078125 2938.695312 L 1005.539062 2938.695312 Z M 2498.378906 2465.578125 L 2875.859375 2465.578125 L 2875.859375 2938.695312 L 2816.019531 2938.695312 L 2816.019531 2652.941406 C 2816.019531 2581.839844 2758.390625 2524.210938 2687.289062 2524.210938 C 2616.199219 2524.210938 2558.558594 2581.839844 2558.558594 2652.941406 L 2558.558594 2938.695312 L 2498.378906 2938.695312 Z M 2140.660156 2938.695312 L 2138.191406 2938.695312 Z M 1939.820312 2470.78125 C 2012.390625 2470.78125 2071.210938 2529.609375 2071.210938 2602.171875 L 2071.210938 2938.167969 C 2071.210938 2938.34375 2071.210938 2938.519531 2071.210938 2938.695312 L 1807.410156 2938.695312 L 1808.441406 2938.695312 C 1808.441406 2938.519531 1808.441406 2938.34375 1808.441406 2938.167969 L 1808.441406 2602.171875 C 1808.441406 2529.609375 1867.261719 2470.78125 1939.820312 2470.78125 Z M 1469.910156 2346.410156 L 2411.480469 2346.410156 L 2411.480469 2416.621094 C 2411.25 2418.441406 2411.128906 2420.28125 2411.128906 2422.128906 L 2411.128906 2938.695312 L 2140.660156 2938.695312 C 2140.660156 2938.519531 2140.671875 2938.34375 2140.671875 2938.167969 L 2140.671875 2602.171875 C 2140.671875 2491.25 2050.75 2401.320312 1939.820312 2401.320312 C 1828.898438 2401.320312 1738.980469 2491.25 1738.980469 2602.171875 L 1738.980469 2938.167969 C 1738.980469 2938.34375 1738.980469 2938.519531 1738.980469 2938.695312 L 1470.261719 2938.695312 L 1470.261719 2422.128906 C 1470.261719 2420.238281 1470.140625 2418.378906 1469.910156 2416.550781 Z M 1277.429688 762.878906 C 1272.71875 762.878906 1268.890625 766.710938 1268.890625 771.421875 L 1268.890625 807.050781 C 1268.890625 809.71875 1270.109375 812.101562 1272.019531 813.660156 C 1266.070312 815.859375 1261.820312 821.589844 1261.820312 828.308594 L 1261.820312 863.941406 C 1261.820312 868.28125 1263.601562 872.210938 1266.460938 875.039062 C 1251.710938 879.699219 1241.019531 893.480469 1241.019531 909.769531 C 1241.019531 924.050781 1249.25 936.410156 1261.21875 942.371094 C 1256.328125 946.800781 1253.25 953.191406 1253.25 960.308594 L 1253.25 1053.671875 C 1251.871094 1054.929688 1250.570312 1056.289062 1249.371094 1057.75 C 1235.21875 1074.980469 1221.800781 1091.601562 1179.519531 1123.960938 C 1174.949219 1127.449219 1170 1131.160156 1164.660156 1135.160156 L 1164.660156 1135.171875 C 1158.820312 1139.550781 1152.550781 1144.25 1146.050781 1149.21875 C 1103.558594 1181.730469 1044.910156 1230.21875 1017.621094 1297.121094 C 989.535156 1365.980469 997.28125 1449.339844 1009.46875 1526.5 L 1009.460938 1526.5 C 1004.640625 1528.628906 1000.210938 1531.648438 996.414062 1535.441406 C 988.335938 1543.519531 983.796875 1554.480469 983.796875 1565.910156 L 983.796875 1702.058594 C 983.796875 1713.488281 988.335938 1724.449219 996.414062 1732.53125 C 1002.421875 1738.53125 1010.019531 1742.578125 1018.210938 1744.269531 L 1018.210938 2055.871094 L 1018.199219 2055.878906 C 1013.828125 2057.960938 1009.808594 2060.789062 1006.320312 2064.28125 C 998.238281 2072.359375 993.699219 2083.320312 993.699219 2094.75 L 993.699219 2378.679688 L 962.085938 2378.679688 C 950.5625 2378.679688 939.511719 2383.261719 931.367188 2391.410156 C 923.21875 2399.558594 918.640625 2410.609375 918.640625 2422.128906 L 918.640625 2982.140625 C 918.640625 2993.664062 923.21875 3004.714844 931.367188 3012.863281 C 939.511719 3021.011719 950.5625 3025.589844 962.085938 3025.589844 L 1426.191406 3025.585938 L 1426.210938 3025.585938 C 1426.289062 3025.589844 1426.378906 3025.589844 1426.460938 3025.589844 L 2454.320312 3025.585938 C 2454.410156 3025.589844 2454.488281 3025.589844 2454.570312 3025.589844 L 2919.308594 3025.585938 C 2943.300781 3025.585938 2962.75 3006.136719 2962.75 2982.140625 L 2962.75 2422.128906 C 2962.75 2398.140625 2943.300781 2378.679688 2919.308594 2378.679688 L 2498.378906 2378.679688 L 2498.378906 2345.160156 L 2543.960938 2345.160156 C 2567.960938 2345.160156 2587.410156 2325.699219 2587.410156 2301.710938 L 2587.410156 2180.609375 C 2587.410156 2156.621094 2567.960938 2137.171875 2543.960938 2137.171875 L 2467.289062 2137.171875 C 2466.910156 2027.109375 2462.980469 1904.589844 2396.910156 1815.941406 C 2333.96875 1731.480469 2218.128906 1682.890625 2141.28125 1649.898438 C 2131.480469 1645.691406 2122.179688 1641.699219 2113.488281 1637.878906 C 2037.171875 1604.320312 2000.960938 1580.890625 1964.871094 1557.160156 L 1964.871094 1477.871094 C 1964.898438 1477.871094 1964.929688 1477.871094 1964.96875 1477.871094 C 2003.878906 1477.871094 2039.820312 1459.511719 2061.640625 1429.730469 L 2061.628906 1429.730469 L 2061.640625 1429.730469 C 2067.988281 1421.058594 2073.140625 1411.421875 2076.820312 1400.988281 C 2062.070312 1410.191406 2045.078125 1416.25 2026.96875 1418.308594 L 2026.980469 1418.308594 C 2026.980469 1418.308594 2026.980469 1418.308594 2026.96875 1418.308594 C 2022.410156 1418.828125 2017.789062 1419.101562 2013.101562 1419.101562 C 2006.679688 1419.101562 2000.160156 1418.601562 1993.589844 1417.558594 C 1938.148438 1408.820312 1897.96875 1365.011719 1893.308594 1314.378906 C 1892.511719 1305.640625 1892.769531 1296.691406 1894.179688 1287.691406 C 1895.53125 1279.140625 1897.859375 1270.96875 1901.050781 1263.261719 L 1901.039062 1263.261719 C 1891.589844 1268.71875 1882.949219 1275.441406 1875.390625 1283.238281 C 1859.808594 1299.339844 1848.878906 1320.050781 1845.140625 1343.78125 C 1836.699219 1397.359375 1867.839844 1447.511719 1916.519531 1468.078125 L 1916.519531 1556.820312 C 1880.300781 1580.679688 1844.160156 1604.171875 1767.550781 1637.910156 C 1758.871094 1641.738281 1749.578125 1645.730469 1739.78125 1649.941406 C 1729.199219 1654.488281 1717.96875 1659.320312 1706.480469 1664.378906 L 1706.480469 1664.390625 C 1653.78125 1687.601562 1589.839844 1717.988281 1537.699219 1760.96875 L 1537.699219 1744.269531 C 1557.339844 1740.261719 1572.109375 1722.890625 1572.109375 1702.058594 L 1572.109375 1565.910156 C 1572.109375 1549.808594 1563.28125 1535.769531 1550.191406 1528.371094 C 1562.570312 1450.941406 1570.609375 1367.058594 1542.160156 1297.289062 C 1510.519531 1219.710938 1436.199219 1164.910156 1392.410156 1131.910156 C 1387.691406 1128.359375 1383.339844 1125.070312 1379.238281 1121.941406 C 1336.359375 1089.121094 1322.878906 1073.269531 1308.859375 1057.019531 C 1306.699219 1054.53125 1304.269531 1052.339844 1301.609375 1050.5 L 1301.609375 960.308594 C 1301.609375 953.191406 1298.539062 946.800781 1293.640625 942.371094 C 1305.609375 936.410156 1313.839844 924.050781 1313.839844 909.769531 C 1313.839844 893.480469 1303.148438 879.699219 1288.410156 875.039062 L 1288.398438 875.039062 C 1291.269531 872.210938 1293.039062 868.28125 1293.039062 863.941406 L 1293.039062 828.308594 C 1293.039062 821.589844 1288.800781 815.871094 1282.839844 813.660156 C 1284.75 812.101562 1285.96875 809.71875 1285.96875 807.050781 L 1285.96875 771.421875 C 1285.96875 766.710938 1282.140625 762.878906 1277.429688 762.878906 Z M 1277.429688 762.878906 "/>
</svg>
